<svg xmlns="http://www.w3.org/2000/svg" viewBox="0 0 2360.27 1599.19"><defs><style>.cls-1,.cls-3{fill:#2c7eff;}.cls-2{fill:#8ec4ff;}.cls-3{opacity:0.4;}.cls-14,.cls-4{opacity:0.3;}.cls-10,.cls-5{fill:#1d45cf;}.cls-5{opacity:0.6;}.cls-6{fill:#ffbc96;}.cls-7{fill:#ffb900;}.cls-8{fill:#bf8938;}.cls-14,.cls-9{fill:#262243;}.cls-11{fill:#fe5b52;}.cls-12{fill:#d28572;}.cls-13{fill:#fff;}.cls-15{fill:#be443d;}</style></defs><g id="Layer_2" data-name="Layer 2"><g id="OBJECTS"><polygon class="cls-1" points="291.29 1046.82 1134.02 940.76 2005.96 1041.74 1143.54 1192.25 291.29 1046.82"/><path class="cls-2" d="M1436.94,1114.14H829.19q20.68-41,41.38-81.93c87.67-173,175.92-340.19,270.61-461.81,97.93,135.68,181,294,254.5,452.55Q1416.82,1068.63,1436.94,1114.14Z"/><path class="cls-3" d="M1436.94,1114.14H829.19q20.68-41,41.38-81.93l267.91,9.53,257.2-18.79Q1416.82,1068.63,1436.94,1114.14Z"/><g class="cls-4"><polygon class="cls-5" points="1141.66 635.26 1145.32 1218.88 1100.48 1217.69 1134.99 635.08 1141.66 635.26"/></g><polygon class="cls-6" points="1713.68 513.41 1711.29 533.69 1718.91 556.55 1739.39 555.12 1741.77 515.11 1728.43 507.02 1713.68 513.41"/><path class="cls-7" d="M1750.34,546.57,1714,630.32A38.22,38.22,0,0,1,1666.25,648l-28.69-11.24-34.26-13.37-14.9-5.83-28.88-8.27-9.28-84.63c14.42,4.77,40,17.15,65.79,29.07l60.51,35.71,32.39-61Z"/><path class="cls-6" d="M1704.74,479.78l8.94,33.63,28.09,1.7s5.11-22.56.85-32.77Z"/><path class="cls-8" d="M1637.56,636.72l-34.26-13.37L1604,602C1619.08,608.83,1632.07,622.81,1637.56,636.72Z"/><rect class="cls-9" x="1600.19" y="471.74" width="17.93" height="9.97" transform="translate(2058.26 -1140.35) rotate(89.02)"/><polygon class="cls-10" points="1837.09 458.44 1614.01 467.66 1614.28 485.63 1837.59 487.2 1852.91 472.55 1837.09 458.44"/><rect class="cls-11" x="1838.52" y="456.98" width="28.77" height="31.14" transform="translate(2293.67 -1388.17) rotate(89.02)"/><path class="cls-6" d="M1722,465.35c0,1.85-3.15,3.35-7,3.35s-7-1.5-7-3.35,2.7-5.66,6.59-5.66S1722,463.5,1722,465.35Z"/><path class="cls-6" d="M1733.13,463.5c0,1.85-3.15,3.35-7.05,3.35s-7-1.5-7-3.35,2.69-5.66,6.59-5.66S1733.13,461.65,1733.13,463.5Z"/><path class="cls-6" d="M1745.39,462.11c0,1.86-3.16,3.36-7.05,3.36s-7.06-1.5-7.06-3.36,2.7-5.66,6.59-5.66S1745.39,460.26,1745.39,462.11Z"/><path class="cls-6" d="M1724.5,501c.7-11.33-5.62-25-13.18-20.12-3.23,2.08,3.24,9.94,2.09,20.35Z"/><polygon class="cls-12" points="1711.76 529.72 1740.98 528.93 1740.26 542.18 1711.76 529.72"/><polygon class="cls-6" points="1559 498.4 1557.46 503.06 1552.93 516.66 1545.09 540.35 1504.89 527.1 1528.29 478.08 1559 498.4"/><polygon class="cls-9" points="1557.46 503.06 1552.93 516.66 1535.58 495.75 1557.46 503.06"/><path class="cls-6" d="M1532.45,495.53l23.14,11.1c6.81,3.26,14.72-1,16.3-8.73l8.78-43.22-42.22-4-10.15,27.38Z"/><path class="cls-9" d="M1532.84,479.36c2.51-11.32,4.47-19.94,12.9-24.46,7.83,7.45,17.81,14.93,29.1,15.14,10.78.2,19.14-7.24,24.68-15.84,0,0-10.54.12-16.54-7.16-6.57-8-16.2-16.11-27-16.74-9.57-.57-17.84,5.38-21,14.33-8.18.53-12.75,6.37-14.54,13.07s-.83,14.27,2.07,18.26Z"/><circle class="cls-6" cx="1529.29" cy="473.78" r="8.94"/><path class="cls-10" d="M1619.84,745.8,1705.38,838a90.9,90.9,0,0,1,19.32,82.37L1663,1203l-81.28-6.35,57.15-285.77L1524.58,810.58l26.67-97.8Z"/><path class="cls-7" d="M1550.3,524.64c59.06,43.18,111.34,174.28,100.66,256.09l-31.12-34.93-52.71-59.06Z"/><path class="cls-10" d="M1471.23,756.6l-34.29,221.63-45.72,214.65,87.64-3.81c47.44-152.12,79.68-300,102.88-464.86Z"/><path class="cls-9" d="M1433.11,1094l-1.86-.42a3168.55,3168.55,0,0,0,54.28-315.21l1.89.23A3172.37,3172.37,0,0,1,1433.11,1094Z"/><path class="cls-13" d="M1512.67,510.35C1527,545,1541,537.83,1550.24,524.63l69.6,221.17c-37.14,7.59-83.83,14-135.27,8.89Z"/><path class="cls-7" d="M1536.16,793.9l-100,28.58c5-87.18,10.59-155.08-3-220.2-5.94-28.51-3.54-54.72,21.22-70,1.15-.69,2.29-1.33,3.43-2l54.89-19.95c22.1,38.71,25.13,69.86,31.8,104.23a311.33,311.33,0,0,1,5.64,52.62C1551.14,708.09,1544.89,749,1536.16,793.9Z"/><path class="cls-8" d="M1550.3,524.8c41.91,73,88,176.55,100.66,255.93l-31.12-34.93Z"/><path class="cls-8" d="M1550.11,682.45c-21.95-4.88-57.69-26.22-89-68.74l86.14,15C1550.67,646.43,1550.54,666.58,1550.11,682.45Z"/><path class="cls-9" d="M1565.54,816.93l-2.86,27.3,16.52,14.61C1583.64,848.36,1578.88,826.14,1565.54,816.93Z"/><path class="cls-9" d="M1517.89,782.84l-1.86-.41c11.42-52.38,22.26-122.2,4.51-198.07l-20.45-19.18,0-.46,3.18-34.93,1.9.18-3.14,34.46,20.2,18.93.06.28C1540.25,660,1529.37,730.2,1517.89,782.84Z"/><rect class="cls-9" x="1458.07" y="735.8" width="46.02" height="1.9" transform="translate(-117.4 310.99) rotate(-11.53)"/><polygon class="cls-6" points="1625.08 489.87 1610.31 519.88 1630.79 539.88 1656.04 495.59 1625.08 489.87"/><path class="cls-6" d="M1625.13,499s-3.1-31.6,3.91-33.26,33.63-.83,39.08.36c5.18,1.13,10.34-2.36,13-4.62a1.32,1.32,0,0,1,2.15,1.19c-.17,4.19-2.38,11.68-15.37,14.68,0,0-6.92,27.44-15,29.49S1625.13,499,1625.13,499Z"/><path class="cls-7" d="M1444.09,605.13l75.81,44.56a49.23,49.23,0,0,0,66.43-15.91L1647,538.93l-34.77-30.48-69.06,80L1477,547Z"/><rect class="cls-9" x="1560.36" y="585.4" width="112.59" height="1.91" transform="translate(251.84 1632.62) rotate(-57.41)"/><polygon class="cls-12" points="1614.78 510.71 1643.3 517.97 1636.67 529.88 1614.78 510.71"/><path class="cls-10" d="M898.54,1223l3.9-216.61c.51-28.37-17.85-53.51-44.67-61.19L643.25,888.42l14.28,120.26,146.7,31,15.25,179.42Z"/><path class="cls-10" d="M722,1219.21l-70.87,49.54c-42.64-79.56-74.31-186.52-97.47-314.66q-4.86-26.87-9.22-55L618.09,885l35.59-6.83,3.24,16.16,5.56,27.78Z"/><path class="cls-14" d="M729.64,911.39,676,923.46,553.7,954.09q-4.86-26.87-9.22-55L618.09,885l85.51,19.24Z"/><path class="cls-9" d="M674.23,992.84l6.35,20.32,22.23,5.08S688.84,994.11,674.23,992.84Z"/><path class="cls-2" d="M291.29,1046.82l845.9,43.18L2006,1041.74c-77.2,134.64-182.46,270.19-309.91,406.44l-541.73,65.44L519.91,1430.4C439.25,1326.21,364.09,1192.76,291.29,1046.82Z"/><path class="cls-1" d="M802.65,738.8l40.64,71.76-27.94,19.37-87.32-76-39.69-90,47.79,18.93A86.3,86.3,0,0,1,765,701.61Z"/><path class="cls-1" d="M584.82,722.28,542.91,890.57c59.42,11.4,125.57,21.59,157.2,20.82,17.42-.42,24.3-14.37,26.52-31.65l23.31-181.59-61.6-34.29-38.24-4.11Z"/><path class="cls-5" d="M732.91,830.78l.54-4.19c-12.2,4.44-22,13.76-22.8,28.22-.68,13,6.41,20.46,16,24.88l.5-3.85c-8-4-13.69-10.66-12.51-22C715.82,842.17,723.36,834.72,732.91,830.78Z"/><path class="cls-5" d="M584.56,825.3c1.76-13.07-6.13-25.54-18.24-28.75l-.87,3.52c14.69,3.39,18.48,22.43,11.84,35.43-5.39,10.54-15.5,17-26.07,21.7l-1.16,4.64C566.17,854.91,582,844,584.56,825.3Z"/><path class="cls-9" d="M573.58,766.76l13.33-16.83c1,21.27-7.94,31.75-17.78,36.83Z"/><path class="cls-9" d="M670.87,705.76a53.13,53.13,0,0,1-9.5-.87c-13.15-2.4-24.43-9.42-30.18-18.76l1.62-1c5.48,8.89,16.28,15.58,28.9,17.88,13.12,2.4,26-.39,35.44-7.66l1.16,1.51A44.71,44.71,0,0,1,670.87,705.76Z"/><rect class="cls-9" x="612.89" y="591.54" width="17.09" height="645.22" transform="matrix(0.83, 0.56, -0.56, 0.83, 617.91, -191.22)"/><rect class="cls-15" x="436.96" y="1141.74" width="32.03" height="43.87" transform="matrix(0.83, 0.56, -0.56, 0.83, 728.69, -54.23)"/><path class="cls-11" d="M465.51,1174.57l-27.34-18.46c-11.21-7.57-25.34-8.45-35.82-2.23-29.42,17.46-46.16,48.6-64.71,76.08l-42.17,62.46-.27.4c-4.94,7.32-2.22,17.78,6.07,23.38l66.94,45.19c8.29,5.6,19,4.21,24-3.1q16.54-24.52,33.1-49l26-38.57c14.21-21,25.75-38.19,29.68-63.71C482.83,1194.93,476.73,1182.14,465.51,1174.57Z"/><polygon class="cls-15" points="429.87 1151.94 374.62 1272.25 472.38 1180.52 460.82 1152.54 429.87 1151.94"/><path class="cls-6" d="M802,639.31c-4.78-1.31-11.19,2.44-13.61,6.77-4.45,7.93-7.81,17.28-4.13,20.95C790,672.75,797.88,682,797.88,682l6.35,21.27,29.53-10.79-10-19.06S832.1,647.55,802,639.31Z"/><path class="cls-1" d="M839.55,838a29.24,29.24,0,0,1-5.75.15,22.88,22.88,0,0,1-3.66-.5,28,28,0,0,1-22.71-23.81l-6.9-122.12,41-5.11,21.11,109,.77,3.73,1.41,7.36C866.68,822,855.36,836,839.55,838Z"/><rect class="cls-9" x="802.47" y="691.58" width="1.9" height="110.81" transform="translate(-38.04 43.13) rotate(-3)"/><path class="cls-5" d="M863.37,799.27a31,31,0,0,0-10.75,4.27c-12,7.66-16.69,20.92-18.82,34.56a22.88,22.88,0,0,1-3.66-.5c2.51-15.66,8.19-30.94,22.94-38.71a36.06,36.06,0,0,1,9.52-3.35Z"/><path class="cls-6" d="M595.93,893.75S624.44,931.5,621.38,936s-5.52,5.07-7.35,7-2.64,7.3-5.08,7.94-8.25,3.49-15.87-1.91c-2.7-1.91-25.41-31.6-25.41-31.6Z"/><path class="cls-1" d="M657.85,657.51l-63.53,16a86.28,86.28,0,0,0-50.82,35.94L488.85,791.7a57.78,57.78,0,0,0,7.58,73.35l68.07,66.8,36.2-32.38L537.19,815Z"/><rect class="cls-9" x="567.99" y="804.4" width="1.9" height="105.67" transform="translate(-400.96 513.98) rotate(-36.94)"/><path class="cls-5" d="M493,785.49l-2.15,3.23c9.43,8.67,13.28,22.57,10,35.94a48.2,48.2,0,0,1-15.65,24.81c.57,1.14,1.15,2.27,1.8,3.38,9.54-8.08,16.56-18.72,18.47-31.91C507.38,807.44,502.58,794,493,785.49Z"/><path class="cls-6" d="M691.19,642.65s-1.22,8.11-3.07,17c-.65,3.1-1.37,6.29-2.15,9.23-1.43,5.46-3.05,10.11-4.68,11.91a19.24,19.24,0,0,1-32.14-20.1L658,638.75l16.1,1.9Z"/><path class="cls-9" d="M691.19,642.65s-1.22,8.11-3.07,17c-.65,3.1-1.37,6.29-2.15,9.23-8.12-4.65-19-14-22-25.74l10.12-2.44Z"/><path class="cls-6" d="M704.26,602.2c-2.74,15.24,2.39,22.33,3,30.49,1.3,18.2-16.89,40.95-49.17,6.07l-4.5-27.46,18.2-17.77Z"/><path class="cls-9" d="M650.37,626.9c-16.41-44.69,19.55-50.21,44.35-41.44,16.09,5.69,13.81,21,13.81,21-14.93,4-27.53,5.27-46.3,3.42-3.71,4.58-3.56,11.1-2.6,18Z"/><circle class="cls-6" cx="656.99" cy="631.28" r="8.65"/><rect class="cls-8" x="1236.98" y="272.63" width="17.84" height="59.6"/><path class="cls-7" d="M1286.13,273.38a20.49,20.49,0,1,1,20.49-20.49A20.51,20.51,0,0,1,1286.13,273.38Zm0-37.56a17.07,17.07,0,1,0,17.08,17.07A17.09,17.09,0,0,0,1286.13,235.82Z"/><path class="cls-7" d="M1206.6,273.38a20.49,20.49,0,1,1,20.48-20.49A20.51,20.51,0,0,1,1206.6,273.38Zm0-37.56a17.07,17.07,0,1,0,17.07,17.07A17.09,17.09,0,0,0,1206.6,235.82Z"/><rect class="cls-9" x="1225.41" y="322.55" width="40.97" height="29.05"/><polygon class="cls-7" points="1277.74 288.48 1214.05 288.48 1200.64 224.32 1291.15 224.32 1277.74 288.48"/><path class="cls-1" d="M1457.29,458.31a14.4,14.4,0,0,1-10.46-4.51,15.74,15.74,0,0,1,0-21.57,14.38,14.38,0,0,1,20.92,0h0a15.72,15.72,0,0,1,0,21.57A14.38,14.38,0,0,1,1457.29,458.31Zm0-26.59a10.45,10.45,0,0,0-7.57,3.28,11.69,11.69,0,0,0,0,16,10.39,10.39,0,0,0,15.15,0,11.69,11.69,0,0,0,0-16h0A10.46,10.46,0,0,0,1457.29,431.72Z"/><path class="cls-1" d="M1384.94,429.93a27.15,27.15,0,1,1,27.14-27.14A27.18,27.18,0,0,1,1384.94,429.93Zm0-50.29a23.15,23.15,0,1,0,23.14,23.15A23.18,23.18,0,0,0,1384.94,379.64Z"/><path class="cls-1" d="M1246.37,412.89A124.93,124.93,0,1,1,1371.29,288,125.07,125.07,0,0,1,1246.37,412.89Zm0-245.85A120.93,120.93,0,1,0,1367.29,288,121.07,121.07,0,0,0,1246.37,167Z"/><path class="cls-2" d="M368.06,1492.09a42.55,42.55,0,0,1-2.65,9.71c-5.87,14.58-22.25,21.72-37.46,17.79a90,90,0,0,0-20.44-3.13c-23.06-.55-46.15,10.51-68.62,5.3-27.93-6.48-128-54.58-68.44-85.43,11.87-6.15,23.26,15.09,30.82,21.13-6.52-5.22,27.89-29.09,31-31.51,6-4.66,12.75-9,20.33-9.63,25.42-2.11,17.46,28.82,9.42,41.78,7.14-11.5,21.83-24.46,36.94-23.5,12.57.8,17.62,30.39,16.61,32.79a16.92,16.92,0,0,0,4.23-6.34c7.72-8,21.51-10.3,31.65-5C363.91,1462.68,370.14,1478.17,368.06,1492.09Z"/><path class="cls-2" d="M192.35,1321.74c5.83,11,7.07,38.6,7.07,38.6s-22.08-16.54-27.91-27.58-5.9-22.45-.15-25.49S186.51,1310.7,192.35,1321.74Z"/><path class="cls-2" d="M455.48,1431.94c-9.55,8-21,33.13-21,33.13s26.67-7,36.22-15.09,13.89-18.6,9.7-23.58S465,1423.9,455.48,1431.94Z"/><path class="cls-2" d="M2097.87,1440.06c-12.8,11.9-28.21,49-28.21,49s35.77-10.44,48.57-22.34,18.62-27.53,13-34.9S2110.67,1428.16,2097.87,1440.06Z"/><path class="cls-2" d="M2082.69,1571.84a29,29,0,0,1-3.38,8.55c-7.46,12.84-28.28,19.12-47.62,15.66a161.17,161.17,0,0,0-26-2.75c-29.32-.49-58.67,9.24-87.23,4.66-35.52-5.71-162.76-48-87-75.19,15.09-5.41,29.57,13.28,39.18,18.6-8.29-4.59,35.46-25.61,39.39-27.74,7.64-4.1,16.2-7.92,25.85-8.48,32.31-1.85,22.19,25.37,12,36.78,9.07-10.12,27.75-21.53,47-20.69,16,.71,22.4,26.76,21.11,28.86a15.78,15.78,0,0,0,5.38-5.57c9.81-7.08,27.34-9.07,40.23-4.36C2077.41,1546,2085.32,1559.59,2082.69,1571.84Z"/><path class="cls-2" d="M376.09,345.78H0c4.7-18.92,19.71-33.47,38.4-36.69,0-.6-.06-1.17-.06-1.77A24.2,24.2,0,0,1,85,298.21a88,88,0,0,1,61.22.05c4.53-22.67,23.73-39.7,46.74-39.7,20.28,0,37.6,13.24,44.53,31.9a24.2,24.2,0,0,1,40.9,11.22c3.62-.25,7.29-.4,11-.4C334.33,301.28,371.34,320.77,376.09,345.78Z"/><path class="cls-2" d="M975.81,97.55H670c3.82-15.38,16-27.21,31.23-29.83,0-.49-.05-1-.05-1.44a19.68,19.68,0,0,1,37.92-7.41,71.46,71.46,0,0,1,49.78.05c3.69-18.44,19.3-32.3,38-32.3,16.49,0,30.58,10.78,36.2,26a19.68,19.68,0,0,1,33.27,9.12c2.94-.2,5.93-.32,9-.32C941.85,61.37,971.94,77.22,975.81,97.55Z"/><path class="cls-2" d="M2008.52,305h351.75c-4.4-16.16-18.44-28.6-35.92-31.35,0-.51.06-1,.06-1.51,0-11.41-10.15-20.68-22.65-20.68-9.48,0-17.61,5.33-21,12.9a89.64,89.64,0,0,0-57.26.05c-4.23-19.37-22.19-33.93-43.72-33.93-19,0-35.16,11.32-41.64,27.26a23.71,23.71,0,0,0-16.25-6.28c-10.68,0-19.63,6.76-22,15.87-3.39-.22-6.82-.34-10.31-.34C2047.57,267,2013,283.63,2008.52,305Z"/><path class="cls-1" d="M1574.68,118.83a48.92,48.92,0,0,1,37.54-17.52c14.12,0,27.25,6.88,36.1,17.76a47.72,47.72,0,0,1,9.86,21.41,2,2,0,0,0,3.35.88c25-26.74,65.62-36,100.37-25.51a90.69,90.69,0,0,1,27.38,13.57c2.08,1.52,4.08-1.95,2-3.46-30.64-22.35-73.74-23.82-107.09-6.63a93.94,93.94,0,0,0-25.5,19.2l3.34.88A52.76,52.76,0,0,0,1636.87,104a50.79,50.79,0,0,0-44-3.07,51.88,51.88,0,0,0-21.05,15c-1.63,2,1.19,4.82,2.83,2.83Z"/><path class="cls-1" d="M1646.24,8.31c-13.62-14.19-42.12-10-46.71,10.76l3.34-.89c-17.58-16.32-47.29-18.45-67.42-5.68-2.17,1.38-.17,4.84,2,3.46C1556.05,4.17,1583.74,5.88,1600,21a2,2,0,0,0,3.35-.88c3.94-17.78,28.41-21.09,40-9,1.79,1.86,4.61-1,2.83-2.83Z"/><path class="cls-1" d="M1755.05,20.7c11.62-12.1,36.09-8.78,40,9a2,2,0,0,0,3.34.88c16.3-15.13,44-16.84,62.58-5.05,2.18,1.38,4.19-2.08,2-3.46-20.13-12.76-49.84-10.64-67.43,5.68l3.35.89c-4.59-20.71-33.09-24.95-46.72-10.75-1.78,1.85,1,4.69,2.83,2.82Z"/></g></g></svg>